{"asset":{"version":"2.0","generator":"Blockbench 5.0.7 glTF exporter"},"scenes":[{"nodes":[11],"name":"blockbench_export"}],"scene":0,"nodes":[{"translation":[0,0.5,0],"name":"right_lower_arm"},{"rotation":[0,0,-0.7071067811865475,0.7071067811865476],"translation":[0.3125,0.25,0],"name":"right_arm","children":[0]},{"translation":[0,0.5,0],"name":"left_lower_arm"},{"rotation":[0,0,0.7071067811865475,0.7071067811865476],"translation":[-0.3125,0.25,0],"name":"left_arm","children":[2]},{"translation":[0,0.375,0],"name":"head"},{"translation":[0,0.5,0],"name":"chest","children":[1,3,4]},{"translation":[-0.03125,0.5,0],"name":"right_shin"},{"rotation":[0,0,-1,6.123233995736766e-17],"translation":[0.15625,0.0625,0],"name":"right_leg","children":[6]},{"translation":[0.03125,0.5,0],"name":"left_shin"},{"rotation":[0,0,1,6.123233995736766e-17],"translation":[-0.15625,0.0625,0],"name":"left_leg","children":[8]},{"translation":[0,0.8125,0],"name":"torso","children":[5,7,9]},{"name":"armature","mesh":0,"children":[10],"skin":0}],"bufferViews":[{"buffer":0,"byteOffset":0,"byteLength":19008,"target":34962,"byteStride":12},{"buffer":0,"byteOffset":19008,"byteLength":19008,"target":34962,"byteStride":12},{"buffer":0,"byteOffset":38016,"byteLength":12672,"target":34962,"byteStride":8},{"buffer":0,"byteOffset":50688,"byteLength":12672,"target":34962,"byteStride":8},{"buffer":0,"byteOffset":63360,"byteLength":25344,"target":34962,"byteStride":16},{"buffer":0,"byteOffset":88704,"byteLength":4320,"target":34963},{"buffer":0,"byteOffset":93024,"byteLength":704},{"buffer":0,"byteOffset":93728,"byteLength":12},{"buffer":0,"byteOffset":93740,"byteLength":36},{"buffer":0,"byteOffset":93776,"byteLength":8},{"buffer":0,"byteOffset":93784,"byteLength":24},{"buffer":0,"byteOffset":93808,"byteLength":12},{"buffer":0,"byteOffset":93820,"byteLength":48},{"buffer":0,"byteOffset":93868,"byteLength":12},{"buffer":0,"byteOffset":93880,"byteLength":48},{"buffer":0,"byteOffset":93928,"byteLength":12},{"buffer":0,"byteOffset":93940,"byteLength":48},{"buffer":0,"byteOffset":93988,"byteLength":12},{"buffer":0,"byteOffset":94000,"byteLength":48},{"buffer":0,"byteOffset":94048,"byteLength":32},{"buffer":0,"byteOffset":94080,"byteLength":128},{"buffer":0,"byteOffset":94208,"byteLength":44},{"buffer":0,"byteOffset":94252,"byteLength":176},{"buffer":0,"byteOffset":94428,"byteLength":44},{"buffer":0,"byteOffset":94472,"byteLength":176},{"buffer":0,"byteOffset":94648,"byteLength":44},{"buffer":0,"byteOffset":94692,"byteLength":176},{"buffer":0,"byteOffset":94868,"byteLength":44},{"buffer":0,"byteOffset":94912,"byteLength":176},{"buffer":0,"byteOffset":95088,"byteLength":12},{"buffer":0,"byteOffset":95100,"byteLength":36},{"buffer":0,"byteOffset":95136,"byteLength":12},{"buffer":0,"byteOffset":95148,"byteLength":36},{"buffer":0,"byteOffset":95184,"byteLength":12},{"buffer":0,"byteOffset":95196,"byteLength":36},{"buffer":0,"byteOffset":95232,"byteLength":12},{"buffer":0,"byteOffset":95244,"byteLength":36},{"buffer":0,"byteOffset":95280,"byteLength":8},{"buffer":0,"byteOffset":95288,"byteLength":32},{"buffer":0,"byteOffset":95320,"byteLength":12},{"buffer":0,"byteOffset":95332,"byteLength":36},{"buffer":0,"byteOffset":95368,"byteLength":8},{"buffer":0,"byteOffset":95376,"byteLength":32}],"buffers":[{"byteLength":95408,"uri":"data:application/octet-stream;base64,"}],"accessors":[{"bufferView":0,"componentType":5126,"count":1584,"max":[1.140548825263977,2.731250047683716,0.5],"min":[-1.140548825263977,0,-0.5],"type":"VEC3"},{"bufferView":1,"componentType":5126,"count":1584,"max":[0.9971724152565002,0.9971724152565002,0.9987784028053284],"min":[-0.9971724152565002,-0.9971724152565002,-0.9987784028053284],"type":"VEC3"},{"bufferView":2,"componentType":5126,"count":1584,"max":[0.515625,0.546875],"min":[0,0],"type":"VEC2"},{"bufferView":3,"componentType":5123,"count":1584,"max":[10,10,0,0],"min":[0,0,0,0],"type":"VEC4"},{"bufferView":4,"componentType":5126,"count":1584,"max":[1,0.4999005198478699,0,0],"min":[0.5000994801521301,0,0,0],"type":"VEC4"},{"bufferView":5,"componentType":5123,"count":2160,"max":[1583],"min":[0],"type":"SCALAR"},{"bufferView":6,"componentType":5126,"count":11,"max":[1,1,0,0,1,1,0,0,0,0,1,0,1.5625,0.875,0,1],"min":[-1,-1,0,0,-1,-1,0,0,0,0,1,0,-1.5625,-1.6875,0,1],"type":"MAT4"},{"bufferView":7,"componentType":5126,"count":3,"max":[0.625],"min":[0],"type":"SCALAR"},{"bufferView":8,"componentType":5126,"count":3,"max":[0,0.9375,0],"min":[0,0.875,0],"type":"VEC3"},{"bufferView":9,"componentType":5126,"count":2,"max":[0.625],"min":[0],"type":"SCALAR"},{"bufferView":10,"componentType":5126,"count":2,"max":[0.15625,0.0625,0.0625],"min":[0.15625,0.0625,0.0625],"type":"VEC3"},{"bufferView":11,"componentType":5126,"count":3,"max":[0.625],"min":[0],"type":"SCALAR"},{"bufferView":12,"componentType":5126,"count":3,"max":[2.466112272257009e-17,0.3826834261417389,-0.9153114557266235,5.657130560897519e-17],"min":[-2.3432602348612458e-17,-0.40274667739868164,-0.9238795042037964,5.604666134237976e-17],"type":"VEC4"},{"bufferView":13,"componentType":5126,"count":3,"max":[0.625],"min":[0],"type":"SCALAR"},{"bufferView":14,"componentType":5126,"count":3,"max":[2.5877905403635593e-17,0.4226182699203491,0.9713420867919922,5.94775484428986e-17],"min":[-1.4554062552496985e-17,-0.237685889005661,0.9063078165054321,5.5495345464113164e-17],"type":"VEC4"},{"bufferView":15,"componentType":5126,"count":3,"max":[0.625],"min":[0],"type":"SCALAR"},{"bufferView":16,"componentType":5126,"count":3,"max":[0.034994110465049744,0.3195289373397827,-0.9413018822669983,0.10308932512998581],"min":[-0.034994110465049744,-0.3195289373397827,-0.9413018822669983,0.10308932512998581],"type":"VEC4"},{"bufferView":17,"componentType":5126,"count":3,"max":[0.625],"min":[0],"type":"SCALAR"},{"bufferView":18,"componentType":5126,"count":3,"max":[0.058719780296087265,0.33450156450271606,0.964157223701477,0.1496065855026245],"min":[-0.02568650245666504,-0.21762104332447052,0.9300896525382996,0.13997825980186462],"type":"VEC4"},{"bufferView":19,"componentType":5126,"count":8,"max":[1.125],"min":[0],"type":"SCALAR"},{"bufferView":20,"componentType":5126,"count":8,"max":[0.258819043636322,0,0,0.9914448857307434],"min":[0.13052618503570557,0,0,0.9659258127212524],"type":"VEC4"},{"bufferView":21,"componentType":5126,"count":11,"max":[1.125],"min":[0],"type":"SCALAR"},{"bufferView":22,"componentType":5126,"count":11,"max":[0.003170907497406006,0.19509032368659973,-0.9807852506637573,0.08709803968667984],"min":[-0.0014267617370933294,-0.13052618503570557,-0.9995778203010559,6.005578077829767e-17],"type":"VEC4"},{"bufferView":23,"componentType":5126,"count":11,"max":[1.125],"min":[0],"type":"SCALAR"},{"bufferView":24,"componentType":5126,"count":11,"max":[0.0038016801699995995,0.2164396196603775,0.9976298213005066,0.06484359502792358],"min":[-0.0254067275673151,-0.08715574443340302,0.9762960076332092,5.978089211713405e-17],"type":"VEC4"},{"bufferView":25,"componentType":5126,"count":11,"max":[1.125],"min":[0],"type":"SCALAR"},{"bufferView":26,"componentType":5126,"count":11,"max":[0.11706538498401642,0.04815058782696724,-0.4385048449039459,0.8968727588653564],"min":[-0.09763973206281662,-0.057730257511138916,-0.44228869676589966,0.8891998529434204],"type":"VEC4"},{"bufferView":27,"componentType":5126,"count":11,"max":[1.125],"min":[0],"type":"SCALAR"},{"bufferView":28,"componentType":5126,"count":11,"max":[0.019350038841366768,0.010072993114590645,0.4617486000061035,0.8870108127593994],"min":[-0.13493509590625763,-0.07024276256561279,0.45637455582618713,0.8766873478889465],"type":"VEC4"},{"bufferView":29,"componentType":5126,"count":3,"max":[0.8333333134651184],"min":[0],"type":"SCALAR"},{"bufferView":30,"componentType":5126,"count":3,"max":[0,0.9375,0],"min":[0,0.8125,0],"type":"VEC3"},{"bufferView":31,"componentType":5126,"count":3,"max":[0.8333333134651184],"min":[0],"type":"SCALAR"},{"bufferView":32,"componentType":5126,"count":3,"max":[0.15625,0.0625,0],"min":[0.15625,-0.0625,0],"type":"VEC3"},{"bufferView":33,"componentType":5126,"count":3,"max":[0.8333333134651184],"min":[0],"type":"SCALAR"},{"bufferView":34,"componentType":5126,"count":3,"max":[-0.15625,0.0625,0],"min":[-0.15625,-0.0625,0],"type":"VEC3"},{"bufferView":35,"componentType":5126,"count":3,"max":[0.8333333134651184],"min":[0],"type":"SCALAR"},{"bufferView":36,"componentType":5126,"count":3,"max":[0.3125,0.25,0],"min":[0.3125,0.1875,0],"type":"VEC3"},{"bufferView":37,"componentType":5126,"count":2,"max":[0.8333333134651184],"min":[0],"type":"SCALAR"},{"bufferView":38,"componentType":5126,"count":2,"max":[0,0,-0.9320078492164612,0.36243805289268494],"min":[0,0,-0.9320078492164612,0.36243805289268494],"type":"VEC4"},{"bufferView":39,"componentType":5126,"count":3,"max":[0.8333333134651184],"min":[0],"type":"SCALAR"},{"bufferView":40,"componentType":5126,"count":3,"max":[-0.3125,0.25,0],"min":[-0.3125,0.1875,0],"type":"VEC3"},{"bufferView":41,"componentType":5126,"count":2,"max":[0.8333333134651184],"min":[0],"type":"SCALAR"},{"bufferView":42,"componentType":5126,"count":2,"max":[0,0,0.9396926164627075,0.3420201539993286],"min":[0,0,0.9396926164627075,0.3420201539993286],"type":"VEC4"}],"materials":[{"pbrMetallicRoughness":{"metallicFactor":0,"roughnessFactor":1,"baseColorTexture":{"index":0}},"alphaMode":"MASK","alphaCutoff":0.05,"doubleSided":true}],"textures":[{"sampler":0,"source":0,"name":"texture"}],"samplers":[{"magFilter":9728,"minFilter":9728,"wrapS":33071,"wrapT":33071}],"images":[{"mimeType":"image/png","uri":"data:image/png;base64,"}],"meshes":[{"primitives":[{"mode":4,"attributes":{"POSITION":0,"NORMAL":1,"TEXCOORD_0":2,"JOINTS_0":3,"WEIGHTS_0":4},"indices":5,"material":0}]}],"skins":[{"inverseBindMatrices":6,"joints":[10,5,1,0,3,2,4,7,6,9,8],"skeleton":10}],"animations":[{"name":"walking","samplers":[{"input":7,"output":8,"interpolation":"LINEAR"},{"input":9,"output":10,"interpolation":"LINEAR"},{"input":11,"output":12,"interpolation":"LINEAR"},{"input":13,"output":14,"interpolation":"LINEAR"},{"input":15,"output":16,"interpolation":"LINEAR"},{"input":17,"output":18,"interpolation":"LINEAR"}],"channels":[{"sampler":0,"target":{"node":10,"path":"translation"}},{"sampler":1,"target":{"node":7,"path":"translation"}},{"sampler":2,"target":{"node":7,"path":"rotation"}},{"sampler":3,"target":{"node":9,"path":"rotation"}},{"sampler":4,"target":{"node":1,"path":"rotation"}},{"sampler":5,"target":{"node":3,"path":"rotation"}}]},{"name":"jumping","samplers":[{"input":19,"output":20,"interpolation":"LINEAR"},{"input":21,"output":22,"interpolation":"LINEAR"},{"input":23,"output":24,"interpolation":"LINEAR"},{"input":25,"output":26,"interpolation":"LINEAR"},{"input":27,"output":28,"interpolation":"LINEAR"}],"channels":[{"sampler":0,"target":{"node":4,"path":"rotation"}},{"sampler":1,"target":{"node":7,"path":"rotation"}},{"sampler":2,"target":{"node":9,"path":"rotation"}},{"sampler":3,"target":{"node":1,"path":"rotation"}},{"sampler":4,"target":{"node":3,"path":"rotation"}}]},{"name":"idle","samplers":[{"input":29,"output":30,"interpolation":"LINEAR"},{"input":31,"output":32,"interpolation":"LINEAR"},{"input":33,"output":34,"interpolation":"LINEAR"},{"input":35,"output":36,"interpolation":"LINEAR"},{"input":37,"output":38,"interpolation":"LINEAR"},{"input":39,"output":40,"interpolation":"LINEAR"},{"input":41,"output":42,"interpolation":"LINEAR"}],"channels":[{"sampler":0,"target":{"node":10,"path":"translation"}},{"sampler":1,"target":{"node":7,"path":"translation"}},{"sampler":2,"target":{"node":9,"path":"translation"}},{"sampler":3,"target":{"node":1,"path":"translation"}},{"sampler":4,"target":{"node":1,"path":"rotation"}},{"sampler":5,"target":{"node":3,"path":"translation"}},{"sampler":6,"target":{"node":3,"path":"rotation"}}]}]}